<svg width="102" height="40" viewBox="0 0 102 40" fill="none" xmlns="http://www.w3.org/2000/svg">
<g clip-path="url(#clip0_8568_1324)">
<path d="M11.8481 8.19991V17.8623H1.13844V8.19991H3.16307V16.2426H5.53678V8.19991H7.44971V16.2426H9.83738V8.19991H11.8481ZM21.1765 17.8623H19.1519V13.9806C19.1519 12.6588 19.2496 11.4207 19.4451 10.2664L16.4012 17.8623H13.8879V8.19991H15.9125V12.1235C15.9125 12.9054 15.8846 13.557 15.8287 14.0783C15.7822 14.5903 15.7124 15.1581 15.6193 15.7818L18.719 8.19991H21.1765V17.8623ZM33.6311 12.9753C33.6311 14.3622 33.2308 15.4141 32.4303 16.1309C31.6297 16.8384 30.5173 17.2154 29.0931 17.2619V18.3929H27.0964V17.2479C25.6536 17.1828 24.5365 16.8011 23.7453 16.103C22.9541 15.3955 22.5584 14.3669 22.5584 13.0171C22.5584 11.6302 22.9587 10.5829 23.7593 9.87547C24.5598 9.1587 25.6722 8.77705 27.0964 8.73051V7.68328H29.0931V8.74447C30.536 8.80963 31.653 9.19594 32.4442 9.9034C33.2355 10.6015 33.6311 11.6255 33.6311 12.9753ZM29.0093 15.9494C29.8937 15.8935 30.536 15.6282 30.9362 15.1535C31.3365 14.6787 31.5366 13.9527 31.5366 12.9753C31.5366 12.0165 31.3318 11.2997 30.9223 10.825C30.5127 10.3502 29.875 10.0896 29.0093 10.043V15.9494ZM24.6529 13.0171C24.6529 13.9759 24.8577 14.6927 25.2673 15.1674C25.6768 15.6422 26.3145 15.9028 27.1802 15.9494V10.043C26.2959 10.0989 25.6536 10.3642 25.2533 10.8389C24.853 11.3137 24.6529 12.0397 24.6529 13.0171ZM40.9277 8.19991L40.7043 9.80566H38.2608V17.8623H36.2082V9.80566H33.6391V8.19991H40.9277Z" fill="#9534D2"/>
<path d="M4.95034 24.2973C5.5554 24.2973 6.08134 24.3857 6.52815 24.5626C6.97497 24.7302 7.41248 24.9908 7.84068 25.3445L6.82138 26.5314C6.26286 26.0753 5.67641 25.8472 5.06204 25.8472C4.3732 25.8472 3.82399 26.1311 3.41441 26.6989C3.01413 27.2575 2.814 28.1371 2.814 29.3379C2.814 30.5108 3.01413 31.3812 3.41441 31.949C3.82399 32.5075 4.37785 32.7868 5.076 32.7868C5.43904 32.7868 5.7695 32.7216 6.06738 32.5913C6.36525 32.4517 6.67709 32.2562 7.0029 32.0049L7.95238 33.1917C7.60796 33.5455 7.17976 33.8387 6.66778 34.0714C6.16512 34.2948 5.6066 34.4065 4.99223 34.4065C4.12652 34.4065 3.36786 34.211 2.71626 33.8201C2.06465 33.4291 1.55733 32.8566 1.19429 32.1026C0.831253 31.3393 0.649734 30.4178 0.649734 29.3379C0.649734 28.2861 0.835908 27.3831 1.20825 26.6291C1.5806 25.8658 2.09258 25.2887 2.74418 24.8977C3.39579 24.4974 4.13117 24.2973 4.95034 24.2973ZM11.1679 24.5207V34.1831H9.11534V24.5207H11.1679ZM20.5084 34.1831H17.8694L14.7975 26.5174C14.8813 27.1783 14.9465 27.802 14.993 28.3885C15.0489 28.9656 15.0768 29.6451 15.0768 30.4271V34.1831H13.2197V24.5207H15.8029L18.9306 32.2004C18.7444 30.953 18.6513 29.808 18.6513 28.7655V24.5207H20.5084V34.1831ZM28.3133 24.5207L28.0899 26.0148H24.5991V28.5281H27.643V30.0082H24.5991V32.6751H28.3412V34.1831H22.5465V24.5207H28.3133ZM39.2926 34.1831H37.282L37.0725 30.2595C37.0074 29.0866 36.9748 28.0906 36.9748 27.2714C36.9748 26.8339 36.9794 26.5174 36.9888 26.3219L35.3551 33.1498H33.4142L31.6689 26.308C31.7061 26.8758 31.7247 27.5134 31.7247 28.2209C31.7247 28.9749 31.7061 29.6684 31.6689 30.3014L31.4594 34.1831H29.4627L30.2167 24.5207H32.8278L34.4196 31.1811L35.9136 24.5207H38.5526L39.2926 34.1831ZM45.9834 34.1831L45.4389 32.0188H42.4089L41.8643 34.1831H39.728L42.7021 24.5207H45.2015L48.1617 34.1831H45.9834ZM42.7999 30.4969H45.0479L43.9169 26.0427L42.7999 30.4969Z" fill="#9534D2"/>
<path d="M63.3063 19.5388H60.2044C58.8831 19.5388 57.8108 20.6111 57.8108 21.9323C57.8108 23.2535 58.8831 24.3258 60.2044 24.3258H64.1791C64.8481 24.3258 65.4323 24.7662 65.6652 25.3934C66.4151 27.412 67.5091 29.2641 68.8752 30.8776C69.5757 31.7042 68.9981 32.9712 67.9146 32.9712H64.7057C63.5601 32.9712 62.5723 33.852 62.5181 34.9977C62.4606 36.22 63.4356 37.23 64.6451 37.23H80.388C81.2241 37.3465 82.0762 37.4071 82.9443 37.4071C93.2013 37.4071 101.504 29.0251 101.371 18.7346C101.242 8.78557 93.1199 0.67158 83.1709 0.550309C81.7762 0.532756 80.4167 0.67158 79.1083 0.949227C75.9808 1.61303 72.7878 1.9194 69.5917 1.9194H54.3339C53.0446 1.9194 51.934 2.91031 51.8734 4.19961C51.8079 5.57508 52.9042 6.7112 54.2653 6.7112H64.0707C66.0956 6.7112 67.4168 8.8478 66.5009 10.6525C66.4897 10.6733 66.4801 10.694 66.469 10.7147C66.0094 11.6322 65.068 12.2099 64.0404 12.2099H51.4936C50.2043 12.2099 49.0937 13.2008 49.0331 14.4901C48.9676 15.8656 50.0639 17.0017 51.425 17.0017H63.3047C64.0244 17.0017 64.5988 17.5985 64.5717 18.3181C64.5462 18.9995 63.9861 19.5372 63.3047 19.5372L63.3063 19.5388ZM77.7759 7.9287C77.9418 5.35169 80.0354 3.26136 82.6124 3.10019C85.7383 2.90552 88.3121 5.48093 88.1143 8.60686C87.9515 11.1855 85.8596 13.2774 83.2794 13.4401C80.1487 13.638 77.5716 11.0562 77.7743 7.9271L77.7759 7.9287ZM67.412 16.1815C67.2189 13.0556 69.7943 10.4834 72.9203 10.6812C75.5005 10.844 77.5924 12.9375 77.7536 15.5177C77.9498 18.6484 75.3664 21.2238 72.2373 21.0212C69.6603 20.8536 67.5716 18.7601 67.4104 16.1831L67.412 16.1815ZM81.4427 28.082C81.28 30.6606 79.1881 32.7526 76.6095 32.9153C73.4787 33.1132 70.8985 30.5314 71.1012 27.4023C71.2687 24.8237 73.3623 22.7349 75.9409 22.5738C79.0668 22.3791 81.639 24.9561 81.4427 28.082ZM83.2427 20.6749C82.0667 20.8712 81.0614 19.8707 81.2513 18.6947C81.3662 17.983 81.9374 17.407 82.6491 17.2873C83.8251 17.091 84.8335 18.0899 84.6437 19.2675C84.5288 19.9808 83.9559 20.5568 83.2427 20.6765V20.6749ZM94.7921 28.0788C94.631 30.6574 92.5406 32.751 89.962 32.9153C86.8313 33.1164 84.2511 30.5346 84.4522 27.4055C84.6165 24.8285 86.7069 22.7365 89.2839 22.5738C92.4082 22.3759 94.9868 24.9529 94.7921 28.0788ZM93.3098 21.0324C90.4471 21.0324 88.127 18.7122 88.127 15.8528C88.127 12.9934 90.6498 10.4738 93.68 10.6844C96.2362 10.8615 98.3058 12.9343 98.4797 15.4906C98.6856 18.5176 96.2905 21.0339 93.3114 21.0339L93.3098 21.0324Z" fill="#9534D2"/>
<rect x="54.0825" y="33.0503" width="6.42883" height="4.28589" rx="2.14294" fill="#9534D2"/>
<rect x="41.4033" y="1.97754" width="8.03604" height="4.64304" rx="2.27732" fill="#9534D2"/>
</g>
<defs>
<clipPath id="clip0_8568_1324">
<rect width="102" height="39.142" fill="white" transform="translate(0 0.0410156)"/>
</clipPath>
</defs>
</svg>
