<svg width="24" height="25" viewBox="0 0 24 25" fill="none" xmlns="http://www.w3.org/2000/svg">
<path d="M21.085 3.61156C20.7923 3.31883 20.3177 3.31882 20.025 3.61153L12.306 11.3295L4.5965 3.61817C4.30356 3.32516 3.82852 3.32525 3.53569 3.61836C3.2431 3.91122 3.24318 4.38578 3.53587 4.67854L11.246 12.3905L3.52997 20.1066C3.23719 20.3993 3.23697 20.874 3.52947 21.167C3.82238 21.4605 4.29781 21.4607 4.59097 21.1674L12.306 13.4505L20.032 21.1756C20.3247 21.4683 20.7993 21.4683 21.092 21.1755C21.3847 20.8828 21.3847 20.4082 21.092 20.1155L13.368 12.3905L21.0851 4.67159C21.3778 4.37884 21.3777 3.90427 21.085 3.61156Z" fill="#CED2DA"/>
</svg>
