<svg width="25" height="24" viewBox="0 0 25 24" fill="none" xmlns="http://www.w3.org/2000/svg">
<path d="M4.5 4L6.5 8H9.5L7.5 4H9.5L11.5 8H14.5L12.5 4H14.5L16.5 8H19.5L17.5 4H20.5C21.05 4 21.5208 4.19583 21.9125 4.5875C22.3042 4.97917 22.5 5.45 22.5 6V18C22.5 18.55 22.3042 19.0208 21.9125 19.4125C21.5208 19.8042 21.05 20 20.5 20H4.5C3.95 20 3.47917 19.8042 3.0875 19.4125C2.69583 19.0208 2.5 18.55 2.5 18V6C2.5 5.45 2.69583 4.97917 3.0875 4.5875C3.47917 4.19583 3.95 4 4.5 4ZM4.5 10V18H20.5V10H4.5Z" fill="#97A1AF"/>
</svg>
