<svg width="90" height="18" viewBox="0 0 90 18" fill="none" xmlns="http://www.w3.org/2000/svg">
<path d="M8.5789 1.76064C8.75115 1.41312 9.24885 1.41312 9.4211 1.76064L11.3749 5.70242C11.4433 5.84042 11.5756 5.93607 11.7285 5.9582L16.0974 6.59029C16.4826 6.64602 16.6364 7.11731 16.3577 7.38781L13.1963 10.4561C13.0856 10.5635 13.0351 10.7182 13.0613 10.8699L13.8075 15.2024C13.8733 15.5843 13.4707 15.8756 13.1262 15.6953L9.21852 13.6498C9.08172 13.5781 8.91828 13.5781 8.78148 13.6498L4.87381 15.6953C4.5293 15.8756 4.12666 15.5843 4.19245 15.2024L4.93875 10.8699C4.96488 10.7182 4.91437 10.5635 4.80369 10.4561L1.64233 7.38781C1.36361 7.11731 1.51741 6.64602 1.90258 6.59029L6.27149 5.9582C6.42444 5.93607 6.55666 5.84042 6.62506 5.70242L8.5789 1.76064Z" fill="#CED2DA"/>
<path d="M26.5789 1.76064C26.7512 1.41312 27.2488 1.41312 27.4211 1.76064L29.3749 5.70242C29.4433 5.84042 29.5756 5.93607 29.7285 5.9582L34.0974 6.59029C34.4826 6.64602 34.6364 7.11731 34.3577 7.38781L31.1963 10.4561C31.0856 10.5635 31.0351 10.7182 31.0613 10.8699L31.8075 15.2024C31.8733 15.5843 31.4707 15.8756 31.1262 15.6953L27.2185 13.6498C27.0817 13.5781 26.9183 13.5781 26.7815 13.6498L22.8738 15.6953C22.5293 15.8756 22.1267 15.5843 22.1925 15.2024L22.9387 10.8699C22.9649 10.7182 22.9144 10.5635 22.8037 10.4561L19.6423 7.38781C19.3636 7.11731 19.5174 6.64602 19.9026 6.59029L24.2715 5.9582C24.4244 5.93607 24.5567 5.84042 24.6251 5.70242L26.5789 1.76064Z" fill="#CED2DA"/>
<path d="M44.5789 1.76064C44.7512 1.41312 45.2488 1.41312 45.4211 1.76064L47.3749 5.70242C47.4433 5.84042 47.5756 5.93607 47.7285 5.9582L52.0974 6.59029C52.4826 6.64602 52.6364 7.11731 52.3577 7.38781L49.1963 10.4561C49.0856 10.5635 49.0351 10.7182 49.0613 10.8699L49.8075 15.2024C49.8733 15.5843 49.4707 15.8756 49.1262 15.6953L45.2185 13.6498C45.0817 13.5781 44.9183 13.5781 44.7815 13.6498L40.8738 15.6953C40.5293 15.8756 40.1267 15.5843 40.1925 15.2024L40.9387 10.8699C40.9649 10.7182 40.9144 10.5635 40.8037 10.4561L37.6423 7.38781C37.3636 7.11731 37.5174 6.64602 37.9026 6.59029L42.2715 5.9582C42.4244 5.93607 42.5567 5.84042 42.6251 5.70242L44.5789 1.76064Z" fill="#CED2DA"/>
<path d="M62.5789 1.76064C62.7512 1.41312 63.2488 1.41312 63.4211 1.76064L65.3749 5.70242C65.4433 5.84042 65.5756 5.93607 65.7285 5.9582L70.0974 6.59029C70.4826 6.64602 70.6364 7.11731 70.3577 7.38781L67.1963 10.4561C67.0856 10.5635 67.0351 10.7182 67.0613 10.8699L67.8075 15.2024C67.8733 15.5843 67.4707 15.8756 67.1262 15.6953L63.2185 13.6498C63.0817 13.5781 62.9183 13.5781 62.7815 13.6498L58.8738 15.6953C58.5293 15.8756 58.1267 15.5843 58.1925 15.2024L58.9387 10.8699C58.9649 10.7182 58.9144 10.5635 58.8037 10.4561L55.6423 7.38781C55.3636 7.11731 55.5174 6.64602 55.9026 6.59029L60.2715 5.9582C60.4244 5.93607 60.5567 5.84042 60.6251 5.70242L62.5789 1.76064Z" fill="#CED2DA"/>
<path d="M80.5789 1.76064C80.7512 1.41312 81.2488 1.41312 81.4211 1.76064L83.3749 5.70242C83.4433 5.84042 83.5756 5.93607 83.7285 5.9582L88.0974 6.59029C88.4826 6.64602 88.6364 7.11731 88.3577 7.38781L85.1963 10.4561C85.0856 10.5635 85.0351 10.7182 85.0613 10.8699L85.8075 15.2024C85.8733 15.5843 85.4707 15.8756 85.1262 15.6953L81.2185 13.6498C81.0817 13.5781 80.9183 13.5781 80.7815 13.6498L76.8738 15.6953C76.5293 15.8756 76.1267 15.5843 76.1925 15.2024L76.9387 10.8699C76.9649 10.7182 76.9144 10.5635 76.8037 10.4561L73.6423 7.38781C73.3636 7.11731 73.5174 6.64602 73.9026 6.59029L78.2715 5.9582C78.4244 5.93607 78.5567 5.84042 78.6251 5.70242L80.5789 1.76064Z" fill="#CED2DA"/>
</svg>
